<?xml version="1.0" encoding="UTF-8" standalone="no"?>
<svg
   xmlns:dc="http://purl.org/dc/elements/1.1/"
   xmlns:cc="http://creativecommons.org/ns#"
   xmlns:rdf="http://www.w3.org/1999/02/22-rdf-syntax-ns#"
   xmlns:svg="http://www.w3.org/2000/svg"
   xmlns="http://www.w3.org/2000/svg"
   xmlns:sodipodi="http://sodipodi.sourceforge.net/DTD/sodipodi-0.dtd"
   xmlns:inkscape="http://www.inkscape.org/namespaces/inkscape"
   sodipodi:docname="joystick_v01.svg"
   inkscape:version="1.0beta2 (unknown)"
   id="svg8"
   version="1.1"
   viewBox="0 0 33.866666 33.866666"
   height="128"
   width="128">
  <defs
     id="defs2" />
  <sodipodi:namedview
     units="px"
     inkscape:window-maximized="1"
     inkscape:window-y="0"
     inkscape:window-x="1"
     inkscape:window-height="1063"
     inkscape:window-width="1918"
     showgrid="false"
     inkscape:document-rotation="0"
     inkscape:current-layer="layer1"
     inkscape:document-units="px"
     inkscape:cy="21.875368"
     inkscape:cx="90.056718"
     inkscape:zoom="8"
     inkscape:pageshadow="2"
     inkscape:pageopacity="0.0"
     borderopacity="1.0"
     bordercolor="#666666"
     pagecolor="#ffffff"
     id="base" />
  <metadata
     id="metadata5">
    <rdf:RDF>
      <cc:Work
         rdf:about="">
        <dc:format>image/svg+xml</dc:format>
        <dc:type
           rdf:resource="http://purl.org/dc/dcmitype/StillImage" />
        <dc:title></dc:title>
      </cc:Work>
    </rdf:RDF>
  </metadata>
  <g
     id="layer1"
     inkscape:groupmode="layer"
     inkscape:label="Layer 1">
    <path
       inkscape:connector-curvature="0"
       transform="scale(0.26458333)"
       d="M 63.703125,0 A 63.999996,63.999996 0 0 0 0,64 63.999996,63.999996 0 0 0 64,128 63.999996,63.999996 0 0 0 128,64 63.999996,63.999996 0 0 0 64,0 63.999996,63.999996 0 0 0 63.703125,0 Z m 0.298828,8 4.478516,8.210938 A 48.000001,48.000001 0 0 1 112,64 48.000001,48.000001 0 0 1 106.60547,86.107422 L 112,96 H 99.777344 A 48.000001,48.000001 0 0 1 64,112 48.000001,48.000001 0 0 1 28.222656,95.998047 H 16 l 5.394531,-9.890625 A 48.000001,48.000001 0 0 1 16,64 48.000001,48.000001 0 0 1 59.523438,16.208984 Z m -4.478515,8.208984 -38.128907,69.898438 a 48.000001,48.000001 0 0 0 6.828125,9.890625 L 99.777344,96 a 48.000001,48.000001 0 0 0 6.828126,-9.892578 L 68.480469,16.210938 A 48.000001,48.000001 0 0 0 64,16 a 48.000001,48.000001 0 0 0 -0.244141,0 48.000001,48.000001 0 0 0 -4.232421,0.208984 z"
       inkscape:transform-center-y="-3.7616507"
       inkscape:transform-center-x="0.18418995"
       style="fill:#666666;fill-opacity:1;stroke-width:0.407711"
       id="path846" />
    <path
       inkscape:transform-center-y="-0.44727514"
       inkscape:transform-center-x="-10.709832"
       d="M 27.030972,47.99441 27.805677,9.5526307 28.580378,-28.889146 61.484583,-8.9973429 94.388788,10.894456 60.709878,29.444432 Z"
       inkscape:randomized="0"
       inkscape:rounded="0"
       inkscape:flatsided="false"
       sodipodi:arg2="3.1617426"
       sodipodi:arg1="2.114545"
       sodipodi:r2="22.198875"
       sodipodi:r1="44.397755"
       sodipodi:cy="9.9999065"
       sodipodi:cx="50.000046"
       sodipodi:sides="3"
       id="path840"
       style="fill:none;stroke-width:0.264583"
       sodipodi:type="star" />
    <path
       inkscape:transform-center-y="-2.594991"
       inkscape:transform-center-x="-10.449444"
       d="M 15.988044,55.590232 20.482702,11.607324 24.977361,-32.375588 60.820348,-6.4916454 96.663337,19.392299 56.325692,37.491265 Z"
       inkscape:randomized="0"
       inkscape:rounded="0"
       inkscape:flatsided="false"
       sodipodi:arg2="3.2434301"
       sodipodi:arg1="2.1962326"
       sodipodi:r2="25.525793"
       sodipodi:r1="51.051586"
       sodipodi:cy="14.202314"
       sodipodi:cx="45.876247"
       sodipodi:sides="3"
       id="path842"
       style="fill:none;stroke-width:0.264583"
       sodipodi:type="star" />
    <path
       transform="matrix(4.9666823,0,-0.00942911,4.7758176,-67.179954,-14.803362)"
       inkscape:transform-center-y="-0.38694088"
       inkscape:transform-center-x="0.010078184"
       d="M 17.262809,4.0406757 16.623551,4.0414606 16.9425,3.4874543 Z"
       inkscape:randomized="0"
       inkscape:rounded="0"
       inkscape:flatsided="true"
       sodipodi:arg2="1.5695684"
       sodipodi:arg1="0.52237085"
       sodipodi:r2="0.1649217"
       sodipodi:r1="0.36907619"
       sodipodi:cy="3.8565302"
       sodipodi:cx="16.942953"
       sodipodi:sides="3"
       id="path1470"
       style="fill:#000080;fill-opacity:1;stroke-width:0.264583"
       sodipodi:type="star" />
  </g>
</svg>
