<?xml version="1.0" encoding="UTF-8" standalone="no"?>
<svg
   xmlns:dc="http://purl.org/dc/elements/1.1/"
   xmlns:cc="http://creativecommons.org/ns#"
   xmlns:rdf="http://www.w3.org/1999/02/22-rdf-syntax-ns#"
   xmlns:svg="http://www.w3.org/2000/svg"
   xmlns="http://www.w3.org/2000/svg"
   xmlns:sodipodi="http://sodipodi.sourceforge.net/DTD/sodipodi-0.dtd"
   xmlns:inkscape="http://www.inkscape.org/namespaces/inkscape"
   sodipodi:docname="joystick_v0.svg"
   inkscape:version="1.0beta2 (unknown)"
   id="svg8"
   version="1.1"
   viewBox="0 0 33.866666 33.866666"
   height="128"
   width="128">
  <defs
     id="defs2" />
  <sodipodi:namedview
     units="px"
     inkscape:window-maximized="1"
     inkscape:window-y="0"
     inkscape:window-x="1"
     inkscape:window-height="1063"
     inkscape:window-width="1918"
     showgrid="false"
     inkscape:document-rotation="0"
     inkscape:current-layer="layer1"
     inkscape:document-units="px"
     inkscape:cy="56.817195"
     inkscape:cx="71.035443"
     inkscape:zoom="5.6568543"
     inkscape:pageshadow="2"
     inkscape:pageopacity="0.0"
     borderopacity="1.0"
     bordercolor="#666666"
     pagecolor="#ffffff"
     id="base" />
  <metadata
     id="metadata5">
    <rdf:RDF>
      <cc:Work
         rdf:about="">
        <dc:format>image/svg+xml</dc:format>
        <dc:type
           rdf:resource="http://purl.org/dc/dcmitype/StillImage" />
        <dc:title></dc:title>
      </cc:Work>
    </rdf:RDF>
  </metadata>
  <g
     id="layer1"
     inkscape:groupmode="layer"
     inkscape:label="Layer 1">
    <path
       transform="matrix(0.39629245,0,0,0.38132723,-2.5127372,0.2382998)"
       inkscape:transform-center-y="-3.4196825"
       inkscape:transform-center-x="0.18418995"
       d="M 81.117039,65.984535 17.02296,65.982975 49.07135,10.476654 Z"
       inkscape:randomized="0"
       inkscape:rounded="0"
       inkscape:flatsided="true"
       sodipodi:arg2="1.5708207"
       sodipodi:arg1="0.52362311"
       sodipodi:r2="18.746506"
       sodipodi:r1="37.004734"
       sodipodi:cy="47.481388"
       sodipodi:cx="49.07045"
       sodipodi:sides="3"
       id="path846"
       style="fill:#666666;fill-opacity:1;stroke-width:0.264583"
       sodipodi:type="star" />
    <path
       inkscape:transform-center-y="-0.44727514"
       inkscape:transform-center-x="-10.709832"
       d="M 27.030972,47.99441 27.805677,9.5526307 28.580378,-28.889146 61.484583,-8.9973429 94.388788,10.894456 60.709878,29.444432 Z"
       inkscape:randomized="0"
       inkscape:rounded="0"
       inkscape:flatsided="false"
       sodipodi:arg2="3.1617426"
       sodipodi:arg1="2.114545"
       sodipodi:r2="22.198875"
       sodipodi:r1="44.397755"
       sodipodi:cy="9.9999065"
       sodipodi:cx="50.000046"
       sodipodi:sides="3"
       id="path840"
       style="fill:none;stroke-width:0.264583"
       sodipodi:type="star" />
    <path
       inkscape:transform-center-y="-2.594991"
       inkscape:transform-center-x="-10.449444"
       d="M 15.988044,55.590232 20.482702,11.607324 24.977361,-32.375588 60.820348,-6.4916454 96.663337,19.392299 56.325692,37.491265 Z"
       inkscape:randomized="0"
       inkscape:rounded="0"
       inkscape:flatsided="false"
       sodipodi:arg2="3.2434301"
       sodipodi:arg1="2.1962326"
       sodipodi:r2="25.525793"
       sodipodi:r1="51.051586"
       sodipodi:cy="14.202314"
       sodipodi:cx="45.876247"
       sodipodi:sides="3"
       id="path842"
       style="fill:none;stroke-width:0.264583"
       sodipodi:type="star" />
    <path
       inkscape:connector-curvature="0"
       transform="scale(0.26458333)"
       d="M 63.703125,0 A 63.999996,63.999996 0 0 0 0,64 63.999996,63.999996 0 0 0 64,128 63.999996,63.999996 0 0 0 128,64 63.999996,63.999996 0 0 0 64,0 63.999996,63.999996 0 0 0 63.703125,0 Z m 0.05273,16 A 48.000001,48.000001 0 0 1 64,16 48.000001,48.000001 0 0 1 112,64 48.000001,48.000001 0 0 1 64,112 48.000001,48.000001 0 0 1 16,64 48.000001,48.000001 0 0 1 63.755859,16 Z"
       style="fill:#333333;stroke-width:2.07752"
       id="path1435" />
  </g>
</svg>
